<?xml version="1.0" encoding="UTF-8" standalone="no"?>
<!DOCTYPE svg PUBLIC "-//W3C//DTD SVG 1.1//EN"
 "http://www.w3.org/Graphics/SVG/1.1/DTD/svg11.dtd">
<!-- Generated by graphviz version 2.43.0 (0)
 -->
<!-- Title: RB1 Pages: 1 -->
<svg width="713pt" height="188pt"
 viewBox="0.00 0.00 712.83 188.00" xmlns="http://www.w3.org/2000/svg" xmlns:xlink="http://www.w3.org/1999/xlink">
<g id="graph0" class="graph" transform="scale(1 1) rotate(0) translate(4 184)">
<title>RB1</title>
<polygon fill="white" stroke="transparent" points="-4,4 -4,-184 708.83,-184 708.83,4 -4,4"/>
<!-- Info Inicial : 5 estrellas -->
<g id="node1" class="node">
<title>Info Inicial : 5 estrellas</title>
<ellipse fill="none" stroke="black" cx="117.64" cy="-162" rx="117.78" ry="18"/>
<text text-anchor="middle" x="117.64" y="-158.3" font-family="Times,serif" font-size="14.00">Info Inicial : 5 estrellas</text>
</g>
<!-- Actualiza Info : 3 estrellas -->
<g id="node2" class="node">
<title>Actualiza Info : 3 estrellas</title>
<ellipse fill="none" stroke="black" cx="232.64" cy="-90" rx="131.88" ry="18"/>
<text text-anchor="middle" x="232.64" y="-86.3" font-family="Times,serif" font-size="14.00">Actualiza Info : 3 estrellas</text>
</g>
<!-- Info Inicial : 5 estrellas&#45;&gt;Actualiza Info : 3 estrellas -->
<g id="edge1" class="edge">
<title>Info Inicial : 5 estrellas&#45;&gt;Actualiza Info : 3 estrellas</title>
<path fill="none" stroke="black" d="M144.89,-144.41C160.25,-135.06 179.63,-123.27 196.26,-113.14"/>
<polygon fill="black" stroke="black" points="198.46,-115.9 205.18,-107.71 194.82,-109.92 198.46,-115.9"/>
</g>
<!-- Actualiza Info : 4 estrellas -->
<g id="node5" class="node">
<title>Actualiza Info : 4 estrellas</title>
<ellipse fill="none" stroke="black" cx="387.64" cy="-18" rx="131.88" ry="18"/>
<text text-anchor="middle" x="387.64" y="-14.3" font-family="Times,serif" font-size="14.00">Actualiza Info : 4 estrellas</text>
</g>
<!-- Actualiza Info : 3 estrellas&#45;&gt;Actualiza Info : 4 estrellas -->
<g id="edge4" class="edge">
<title>Actualiza Info : 3 estrellas&#45;&gt;Actualiza Info : 4 estrellas</title>
<path fill="none" stroke="black" d="M268.98,-72.59C290.76,-62.75 318.66,-50.15 341.93,-39.64"/>
<polygon fill="black" stroke="black" points="343.59,-42.74 351.26,-35.43 340.7,-36.36 343.59,-42.74"/>
</g>
<!-- Datos: Pernil Seco -->
<g id="node3" class="node">
<title>Datos: Pernil Seco</title>
<ellipse fill="none" stroke="black" cx="348.64" cy="-162" rx="95.58" ry="18"/>
<text text-anchor="middle" x="348.64" y="-158.3" font-family="Times,serif" font-size="14.00">Datos: Pernil Seco</text>
</g>
<!-- Datos: Pernil Seco&#45;&gt;Actualiza Info : 3 estrellas -->
<g id="edge2" class="edge">
<title>Datos: Pernil Seco&#45;&gt;Actualiza Info : 3 estrellas</title>
<path fill="none" stroke="black" d="M321.44,-144.59C305.82,-135.16 285.99,-123.2 269.04,-112.96"/>
<polygon fill="black" stroke="black" points="270.84,-109.97 260.47,-107.8 267.23,-115.96 270.84,-109.97"/>
</g>
<!-- Nuevos Datos: Buena empanada -->
<g id="node4" class="node">
<title>Nuevos Datos: Buena empanada</title>
<ellipse fill="none" stroke="black" cx="543.64" cy="-90" rx="161.37" ry="18"/>
<text text-anchor="middle" x="543.64" y="-86.3" font-family="Times,serif" font-size="14.00">Nuevos Datos: Buena empanada</text>
</g>
<!-- Nuevos Datos: Buena empanada&#45;&gt;Actualiza Info : 4 estrellas -->
<g id="edge3" class="edge">
<title>Nuevos Datos: Buena empanada&#45;&gt;Actualiza Info : 4 estrellas</title>
<path fill="none" stroke="black" d="M506.67,-72.41C484.73,-62.57 456.75,-50.01 433.42,-39.54"/>
<polygon fill="black" stroke="black" points="434.63,-36.25 424.07,-35.35 431.77,-42.64 434.63,-36.25"/>
</g>
</g>
</svg>
