<?xml version="1.0" encoding="UTF-8" standalone="no"?>
<!DOCTYPE svg PUBLIC "-//W3C//DTD SVG 1.1//EN"
 "http://www.w3.org/Graphics/SVG/1.1/DTD/svg11.dtd">
<!-- Generated by graphviz version 2.43.0 (0)
 -->
<!-- Title: RB2 Pages: 1 -->
<svg width="312pt" height="188pt"
 viewBox="0.00 0.00 311.74 188.00" xmlns="http://www.w3.org/2000/svg" xmlns:xlink="http://www.w3.org/1999/xlink">
<g id="graph0" class="graph" transform="scale(1 1) rotate(0) translate(4 184)">
<title>RB2</title>
<polygon fill="white" stroke="transparent" points="-4,4 -4,-184 307.74,-184 307.74,4 -4,4"/>
<!-- Previa -->
<g id="node1" class="node">
<title>Previa</title>
<ellipse fill="none" stroke="black" cx="40.3" cy="-162" rx="40.09" ry="18"/>
<text text-anchor="middle" x="40.3" y="-158.3" font-family="Times,serif" font-size="14.00">Previa</text>
</g>
<!-- Posterior -->
<g id="node2" class="node">
<title>Posterior</title>
<ellipse fill="none" stroke="black" cx="85.3" cy="-90" rx="53.09" ry="18"/>
<text text-anchor="middle" x="85.3" y="-86.3" font-family="Times,serif" font-size="14.00">Posterior</text>
</g>
<!-- Previa&#45;&gt;Posterior -->
<g id="edge1" class="edge">
<title>Previa&#45;&gt;Posterior</title>
<path fill="none" stroke="black" d="M50.96,-144.41C56.32,-136.08 62.93,-125.8 68.91,-116.49"/>
<polygon fill="black" stroke="black" points="71.93,-118.26 74.4,-107.96 66.04,-114.48 71.93,-118.26"/>
</g>
<!-- Posterior  -->
<g id="node4" class="node">
<title>Posterior </title>
<ellipse fill="none" stroke="black" cx="157.3" cy="-18" rx="55.79" ry="18"/>
<text text-anchor="middle" x="157.3" y="-14.3" font-family="Times,serif" font-size="14.00">Posterior </text>
</g>
<!-- Posterior&#45;&gt;Posterior  -->
<g id="edge3" class="edge">
<title>Posterior&#45;&gt;Posterior </title>
<path fill="none" stroke="black" d="M102,-72.76C111.13,-63.88 122.62,-52.71 132.76,-42.85"/>
<polygon fill="black" stroke="black" points="135.46,-45.11 140.19,-35.63 130.58,-40.09 135.46,-45.11"/>
</g>
<!-- Data -->
<g id="node3" class="node">
<title>Data</title>
<ellipse fill="none" stroke="black" cx="131.3" cy="-162" rx="32.49" ry="18"/>
<text text-anchor="middle" x="131.3" y="-158.3" font-family="Times,serif" font-size="14.00">Data</text>
</g>
<!-- Data&#45;&gt;Posterior -->
<g id="edge2" class="edge">
<title>Data&#45;&gt;Posterior</title>
<path fill="none" stroke="black" d="M120.63,-144.76C115.02,-136.23 108.02,-125.58 101.74,-116.02"/>
<polygon fill="black" stroke="black" points="104.64,-114.07 96.23,-107.63 98.79,-117.91 104.64,-114.07"/>
</g>
<!-- Nuevos datos -->
<g id="node5" class="node">
<title>Nuevos datos</title>
<ellipse fill="none" stroke="black" cx="230.3" cy="-90" rx="73.39" ry="18"/>
<text text-anchor="middle" x="230.3" y="-86.3" font-family="Times,serif" font-size="14.00">Nuevos datos</text>
</g>
<!-- Nuevos datos&#45;&gt;Posterior  -->
<g id="edge4" class="edge">
<title>Nuevos datos&#45;&gt;Posterior </title>
<path fill="none" stroke="black" d="M213,-72.41C203.66,-63.45 191.97,-52.25 181.72,-42.42"/>
<polygon fill="black" stroke="black" points="183.86,-39.62 174.22,-35.23 179.02,-44.68 183.86,-39.62"/>
</g>
</g>
</svg>
